<svg width="178" height="58" viewBox="0 0 178 58" fill="none" xmlns="http://www.w3.org/2000/svg">
<path d="M165.529 46.8702C164.797 47.4334 163.728 47.8895 162.324 48.2383C160.919 48.5872 159.335 48.7526 157.571 48.7345C155.548 48.7138 153.786 48.4364 152.287 47.9021C150.84 47.3685 149.837 46.528 149.278 45.3807C148.82 44.494 148.261 43.2689 147.603 41.7055C146.997 40.0908 146.34 38.3199 145.634 36.3929C144.927 34.4139 144.197 32.305 143.441 30.0661C142.686 27.8272 141.956 25.6145 141.252 23.4281C140.6 21.2421 139.999 19.1345 139.449 17.1053C138.899 15.076 138.45 13.2813 138.103 11.7211C138.837 11.0022 139.803 10.3895 141.001 9.88286C142.253 9.3249 143.604 9.05335 145.057 9.06821C146.873 9.0868 148.348 9.49104 149.481 10.281C150.667 11.0195 151.535 12.4294 152.084 14.5105L154.997 26.4485C155.544 28.789 156.067 30.9217 156.566 32.8467C157.066 34.7197 157.44 36.1764 157.689 37.2167L158.078 37.2207C159.103 33.3915 160.184 29.1478 161.322 24.4896C162.459 19.8313 163.492 15.2499 164.42 10.7451C165.307 10.2872 166.296 9.93415 167.388 9.68589C168.532 9.43816 169.623 9.3196 170.661 9.33022C172.477 9.3488 174.003 9.75358 175.24 10.5445C176.478 11.3355 177.086 12.6908 177.067 14.6105C177.058 15.4406 176.838 16.6577 176.407 18.2618C176.028 19.8145 175.516 21.5994 174.873 23.6164C174.282 25.5821 173.56 27.6762 172.707 29.8986C171.906 32.1216 171.08 34.2924 170.228 36.4111C169.376 38.5297 168.526 40.5187 167.676 42.3779C166.88 44.1859 166.164 45.6833 165.529 46.8702Z" fill="#DDDDDD"/>
<path d="M78.1687 38.7866C78.7383 38.8962 79.4376 39.0071 80.2667 39.1194C81.0963 39.1798 81.8742 39.2137 82.6006 39.2211C84.3646 39.2392 85.9756 38.9962 87.4336 38.4923C88.9435 37.9888 90.2228 37.1977 91.2716 36.1188C92.3723 35.0404 93.2167 33.6481 93.8049 31.9418C94.4456 30.1842 94.7784 28.0861 94.8033 25.6477C94.8511 20.9783 93.7974 17.4651 91.6423 15.1081C89.4876 12.6993 86.5945 11.4762 82.9627 11.4391C82.2364 11.4316 81.4838 11.4499 80.705 11.4938C79.9782 11.5383 79.2251 11.6084 78.4458 11.7042L78.1687 38.7866ZM82.4105 50.1934C81.5285 50.1843 80.5171 50.1481 79.3762 50.0845C78.2353 50.0209 77.0431 49.9049 75.7995 49.7366C74.6078 49.5687 73.3907 49.3487 72.1482 49.0766C70.957 48.8568 69.8447 48.5341 68.8114 48.1084C65.969 46.9897 64.5616 45.0814 64.5892 42.3835L64.9611 6.04017C64.9723 4.95065 65.2661 4.12346 65.8427 3.5586C66.4716 2.94238 67.3068 2.45799 68.3481 2.10544C70.5865 1.40192 72.9519 0.959138 75.4444 0.777093C77.9374 0.543167 80.1696 0.436291 82.1411 0.456466C86.1879 0.497877 89.8406 1.02819 93.099 2.04739C96.4094 3.06713 99.2213 4.62658 101.535 6.72576C103.901 8.77358 105.716 11.3606 106.981 14.4868C108.247 17.613 108.857 21.3032 108.814 25.5576C108.771 29.7081 108.112 33.3335 106.835 36.4337C105.558 39.482 103.742 42.0578 101.385 44.161C99.0812 46.213 96.3155 47.7413 93.0882 48.746C89.8609 49.7507 86.3016 50.2332 82.4105 50.1934Z" fill="#DDDDDD"/>
<path d="M137.919 47.1255C135.154 48.4383 132.398 49.2871 129.651 49.6719C126.93 49.9876 124.311 49.7948 121.796 49.0935C119.327 48.37 117.021 47.0812 114.877 45.2271C112.78 43.3508 110.987 40.8424 109.496 37.702C108.027 34.6085 107.262 31.7266 107.201 29.0564C107.164 26.317 107.632 23.8549 108.605 21.67C109.556 19.4382 110.93 17.4936 112.728 15.8361C114.503 14.1318 116.493 12.7568 118.696 11.711C121.18 10.5317 123.608 9.83871 125.979 9.6319C128.398 9.40284 130.645 9.59964 132.721 10.2223C134.844 10.8227 136.737 11.8478 138.402 13.2975C140.113 14.725 141.481 16.5168 142.504 18.6729C143.261 20.2665 143.394 21.6966 142.904 22.963C142.414 24.2295 141.428 25.3581 139.945 26.349L123.814 37.1941C125.064 38.4961 126.675 39.1672 128.647 39.2075C130.597 39.201 132.603 38.7082 134.665 37.7292C136.587 36.817 138.28 35.726 139.745 34.4562C141.234 33.1174 142.362 31.864 143.129 30.696C144.101 30.8087 145.046 31.1646 145.962 31.7635C146.878 32.3625 147.558 33.1306 148.003 34.0681C149.005 36.1773 148.766 38.2148 147.287 40.1804C146.165 41.6893 144.733 43.0293 142.992 44.2005C141.251 45.3718 139.56 46.3468 137.919 47.1255ZM122.834 20.4291C121.709 20.9631 120.814 21.6179 120.148 22.3934C119.529 23.1466 119.107 23.9502 118.88 24.8043C118.632 25.6115 118.545 26.4569 118.62 27.3403C118.719 28.1546 118.923 28.9479 119.233 29.7201L130.321 22.0443C129.735 21.1736 128.774 20.481 127.439 19.9663C126.103 19.4516 124.568 19.6059 122.834 20.4291Z" fill="#DDDDDD"/>
<path fill-rule="evenodd" clip-rule="evenodd" d="M129.709 50.1685C126.926 50.4913 124.242 50.2946 121.661 49.5751L121.655 49.5734C119.111 48.8277 116.742 47.5014 114.55 45.6053L114.544 45.5998C112.387 43.67 110.557 41.1032 109.044 37.9164C107.554 34.7766 106.765 31.8252 106.701 29.0679L106.701 29.0631C106.663 26.2634 107.142 23.7293 108.147 21.4703C109.125 19.1759 110.539 17.1753 112.385 15.4719C114.198 13.7324 116.231 12.3276 118.481 11.2593C121.01 10.0587 123.495 9.34686 125.934 9.13395C128.407 8.89995 130.717 9.10001 132.861 9.74227C135.051 10.3624 137.008 11.4215 138.726 12.917C140.495 14.3935 141.905 16.2434 142.956 18.4585C143.753 20.1371 143.924 21.7136 143.37 23.1435C142.833 24.5316 141.765 25.734 140.224 26.7642C140.224 26.7643 140.224 26.764 140.224 26.7642L124.611 37.2609C125.69 38.1876 127.027 38.6732 128.651 38.7075C130.514 38.7003 132.445 38.2293 134.45 37.2775C136.334 36.3835 137.987 35.3175 139.414 34.0814C140.882 32.7611 141.976 31.541 142.711 30.4217L142.88 30.1638L143.186 30.1994C144.245 30.322 145.262 30.7087 146.235 31.345C147.224 31.9914 147.968 32.8285 148.455 33.8537C148.99 34.9811 149.204 36.1119 149.072 37.2363C148.94 38.3587 148.469 39.4409 147.687 40.4801C146.528 42.0388 145.054 43.4165 143.271 44.6154C141.512 45.7984 139.8 46.7863 138.134 47.5772C135.327 48.9095 132.522 49.7745 129.721 50.167L129.709 50.1685ZM139.745 34.4562C138.28 35.726 136.587 36.8169 134.665 37.7292C132.603 38.7082 130.597 39.201 128.647 39.2075C126.863 39.1711 125.375 38.6184 124.182 37.5494C124.056 37.4367 123.934 37.3183 123.814 37.1941L139.945 26.349C141.428 25.3581 142.414 24.2295 142.904 22.963C143.394 21.6966 143.261 20.2665 142.504 18.6729C141.481 16.5168 140.113 14.725 138.402 13.2975C136.737 11.8478 134.844 10.8227 132.721 10.2223C130.645 9.59964 128.398 9.40284 125.979 9.6319C123.608 9.8387 121.18 10.5317 118.696 11.711C116.493 12.7568 114.503 14.1318 112.728 15.8361C110.93 17.4936 109.556 19.4382 108.605 21.67C107.632 23.8549 107.164 26.317 107.201 29.0564C107.262 31.7266 108.027 34.6085 109.496 37.702C110.987 40.8424 112.78 43.3508 114.877 45.2271C117.021 47.0812 119.327 48.37 121.796 49.0935C124.311 49.7948 126.93 49.9876 129.651 49.6719C132.398 49.2871 135.154 48.4383 137.919 47.1255C139.56 46.3468 141.251 45.3718 142.992 44.2005C144.733 43.0293 146.165 41.6893 147.287 40.1804C148.766 38.2148 149.005 36.1773 148.003 34.0681C147.558 33.1306 146.878 32.3624 145.962 31.7635C145.046 31.1646 144.101 30.8087 143.129 30.696C142.362 31.864 141.234 33.1174 139.745 34.4562ZM119.361 24.942L119.358 24.9515C119.13 25.6917 119.049 26.4695 119.117 27.2889C119.186 27.8493 119.308 28.3993 119.482 28.9394L129.603 21.9332C129.078 21.3429 128.309 20.8373 127.259 20.4328C126.091 19.9825 124.703 20.0955 123.049 20.8808C121.975 21.3903 121.142 22.0046 120.531 22.715C119.955 23.4173 119.57 24.1561 119.364 24.9324L119.361 24.942ZM130.017 21.6467C130.103 21.7469 130.184 21.8497 130.259 21.9552C130.28 21.9847 130.301 22.0144 130.321 22.0443L119.233 29.7201C119.168 29.5596 119.109 29.3983 119.053 29.236C118.843 28.6173 118.699 27.9854 118.62 27.3403C118.545 26.4569 118.632 25.6115 118.88 24.8043C119.107 23.9502 119.529 23.1466 120.148 22.3934C120.814 21.6179 121.709 20.9631 122.834 20.4291C124.568 19.6059 126.103 19.4516 127.439 19.9663C128.564 20.4 129.424 20.9602 130.017 21.6467Z" fill="white"/>
<path d="M13.8312 2.5965C14.7185 2.0867 16.0465 1.60736 17.8153 1.15847C19.6359 0.710111 21.4542 0.495222 23.27 0.513804C25.8642 0.54035 28.143 0.952828 30.1065 1.75124C32.1225 2.49829 33.4076 3.6789 33.9618 5.29308C34.8681 8.00051 35.8477 11.1497 36.9006 14.7407C37.9535 18.3317 39.005 22.0525 40.0553 25.9029C41.106 29.7014 42.1311 33.4738 43.1306 37.2199C44.1305 40.9141 45.005 44.192 45.754 47.0535C45.124 47.7734 44.1843 48.3346 42.9349 48.7369C41.6849 49.1911 40.2039 49.4094 38.4918 49.3919C37.2466 49.3792 36.1841 49.2645 35.3042 49.048C34.4762 48.8319 33.779 48.5135 33.2126 48.0926C32.698 47.6722 32.2626 47.1229 31.9063 46.4448C31.6019 45.7671 31.3245 44.986 31.0741 44.1013L29.7283 38.7172L15.6423 38.573C15.2113 40.1253 14.7798 41.7294 14.3477 43.3853C13.9157 45.0413 13.4842 46.6454 13.0532 48.1976C12.3242 48.4496 11.5438 48.6492 10.7121 48.7963C9.93178 48.9959 8.9709 49.0898 7.8295 49.0781C5.18351 49.0511 3.21651 48.5899 1.92848 47.6946C0.692869 46.748 0.0832922 45.4705 0.0997504 43.8622C0.107183 43.1358 0.21838 42.4105 0.433341 41.6863C0.648302 40.9621 0.890531 40.1084 1.16003 39.1253C1.53754 37.7282 2.0482 35.9952 2.69202 33.9263C3.38773 31.8579 4.1369 29.6344 4.93956 27.2558C5.74274 24.8253 6.59834 22.3435 7.50634 19.8103C8.41435 17.2771 9.26889 14.899 10.0699 12.6761C10.8715 10.4012 11.5927 8.38498 12.2333 6.62736C12.9258 4.87028 13.4584 3.52665 13.8312 2.5965ZM23.0672 12.7312C22.3185 14.9028 21.4635 17.3328 20.502 20.0211C19.5929 22.6581 18.7612 25.3477 18.0067 28.09L27.6567 28.1888C26.959 25.3797 26.2346 22.6482 25.4835 19.9943C24.7847 17.289 24.135 14.8695 23.5341 12.736L23.0672 12.7312Z" fill="#DDDDDD"/>
<path d="M52.4008 19.1208C51.2694 19.6578 50.2723 20.3608 49.4094 21.2298C48.5918 22.0773 47.9763 23.0586 47.5629 24.1738C47.1725 25.2205 47.0069 26.3903 47.066 27.6832C47.1251 28.9761 47.4995 30.3491 48.1892 31.8021C49.5685 34.7083 51.3949 36.512 53.6685 37.2133C55.9874 37.8931 58.3008 37.6853 60.6088 36.5899C61.9665 35.9455 63.0652 35.223 63.9051 34.4224C64.745 33.6217 65.4606 32.8513 66.052 32.1112C67.2686 32.3378 68.2922 32.7422 69.123 33.3242C69.9315 33.8594 70.5916 34.666 71.1032 35.7441C72.0154 37.6659 71.8448 39.5847 70.5915 41.5005C69.316 43.3694 67.117 45.0449 63.9943 46.5269C61.1433 47.8801 58.3635 48.6825 55.655 48.9342C52.9243 49.1391 50.3547 48.8655 47.9461 48.1134C45.5605 47.2929 43.3924 45.996 41.4416 44.2225C39.4909 42.4491 37.8815 40.2264 36.6135 37.5547C35.1452 34.461 34.3411 31.5403 34.2014 28.7924C34.0846 25.9762 34.5075 23.4208 35.4701 21.1261C36.4326 18.8315 37.822 16.7937 39.6383 15.0127C41.4999 13.2102 43.6525 11.7291 46.0963 10.5692C49.3547 9.02272 52.1556 8.43999 54.4989 8.82101C56.8423 9.20203 58.4701 10.3534 59.3822 12.2752C59.8049 13.1658 60.0017 14.1062 59.9726 15.0964C59.9213 16.0396 59.7575 16.9214 59.4814 17.7416C58.5341 17.7318 57.4395 17.8206 56.1977 18.0079C54.9336 18.1485 53.668 18.5194 52.4008 19.1208Z" fill="#DDDDDD"/>
<path fill-rule="evenodd" clip-rule="evenodd" d="M48.0317 24.3476L48.0314 24.3485C47.6679 25.3229 47.509 26.4242 47.5655 27.6604C47.6209 28.8729 47.973 30.1806 48.6409 31.5877C49.9815 34.4122 51.7166 36.0867 53.8125 36.7345C56.0053 37.3765 58.1915 37.1837 60.3944 36.1382C61.7175 35.5102 62.7682 34.8154 63.5601 34.0604C64.3872 33.272 65.0868 32.5182 65.6614 31.7991L65.8487 31.5647L66.1436 31.6196C67.4127 31.8561 68.5049 32.282 69.4045 32.911C70.3021 33.5068 71.0143 34.3907 71.555 35.5297C72.5484 37.6229 72.3498 39.726 71.01 41.7742L71.0046 41.7824L71.0045 41.7823C69.6594 43.7533 67.3726 45.477 64.2088 46.9786C61.3131 48.3529 58.4766 49.1742 55.7013 49.4321L55.6925 49.4329L55.6925 49.4328C52.9042 49.642 50.2709 49.3631 47.7971 48.5906L47.7903 48.5885L47.7835 48.5862C45.3307 47.7426 43.104 46.4096 41.1053 44.5925C39.1008 42.7701 37.4544 40.4925 36.1618 37.769C34.672 34.6302 33.8458 31.6451 33.702 28.8178L33.7018 28.8132L33.7018 28.8131C33.5825 25.9334 34.0145 23.3035 35.009 20.9327C35.9979 18.5753 37.4255 16.4822 39.2883 14.6557L39.2905 14.6535L39.2905 14.6535C41.1929 12.8115 43.3911 11.2997 45.882 10.1175C49.1874 8.54867 52.096 7.92373 54.5792 8.32749C57.0628 8.7313 58.8423 9.9716 59.8339 12.0609C60.2907 13.0233 60.5038 14.0422 60.4724 15.111L60.472 15.1235L60.4719 15.1235C60.4183 16.1078 60.2471 17.0344 59.9553 17.9011L59.8394 18.2454L59.4762 18.2416C58.5626 18.2321 57.4957 18.3177 56.2723 18.5023L56.2626 18.5038L56.2529 18.5049C55.0494 18.6387 53.8373 18.9925 52.6152 19.5725C51.5359 20.0848 50.5874 20.7536 49.7668 21.5795C48.9988 22.3763 48.4209 23.2976 48.0317 24.3476ZM69.123 33.3242C68.2922 32.7422 67.2686 32.3378 66.052 32.1112C65.4607 32.8513 64.745 33.6217 63.9051 34.4224C63.0653 35.223 61.9665 35.9455 60.6088 36.5899C58.3008 37.6853 55.9874 37.8931 53.6685 37.2133C51.395 36.512 49.5685 34.7083 48.1892 31.8021C47.4995 30.3491 47.1251 28.9761 47.066 27.6832C47.0069 26.3903 47.1725 25.2205 47.5629 24.1738C47.9763 23.0586 48.5918 22.0773 49.4094 21.2298C50.2723 20.3608 51.2694 19.6578 52.4008 19.1208C53.668 18.5194 54.9336 18.1485 56.1977 18.0079C57.4395 17.8206 58.5341 17.7318 59.4814 17.7416C59.7575 16.9214 59.9213 16.0396 59.9726 15.0964C60.0017 14.1062 59.8049 13.1658 59.3822 12.2752C58.4701 10.3534 56.8423 9.20203 54.499 8.82101C52.1556 8.43998 49.3547 9.02272 46.0963 10.5692C43.6526 11.7291 41.4999 13.2102 39.6383 15.0127C37.8221 16.7937 36.4326 18.8315 35.4701 21.1261C34.5076 23.4208 34.0847 25.9762 34.2014 28.7924C34.3411 31.5403 35.1452 34.461 36.6135 37.5547C37.8816 40.2264 39.491 42.449 41.4417 44.2225C43.3924 45.996 45.5605 47.2929 47.9461 48.1134C50.3547 48.8655 52.9244 49.1391 55.6551 48.9342C58.3635 48.6825 61.1433 47.8801 63.9944 46.5269C67.117 45.0448 69.316 43.3694 70.5915 41.5005C71.8448 39.5847 72.0154 37.6659 71.1033 35.7441C70.5916 34.666 69.9315 33.8594 69.123 33.3242Z" fill="white"/>
</svg>
