<svg width="178" height="57" viewBox="0 0 178 57" fill="none" xmlns="http://www.w3.org/2000/svg">
<path d="M165.482 46.5889C164.75 47.1522 163.681 47.6082 162.277 47.9571C160.872 48.3059 159.288 48.4713 157.524 48.4533C155.501 48.4326 153.739 48.1551 152.24 47.6209C150.793 47.0872 149.789 46.2467 149.23 45.0995C148.772 44.2127 148.214 42.9876 147.556 41.4243C146.95 39.8096 146.293 38.0387 145.586 36.1116C144.88 34.1327 144.149 32.0237 143.394 29.7848C142.639 27.546 141.909 25.3333 141.205 23.1468C140.553 20.9608 139.952 18.8532 139.402 16.824C138.852 14.7948 138.403 13.0001 138.056 11.4399C138.79 10.721 139.756 10.1082 140.954 9.60159C142.205 9.04363 143.557 8.77208 145.01 8.78695C146.826 8.80553 148.3 9.20978 149.434 9.99969C150.62 10.7382 151.487 12.1481 152.037 14.2292L154.95 26.1672C155.497 28.5077 156.02 30.6405 156.519 32.5654C157.019 34.4385 157.393 35.8952 157.642 36.9354L158.031 36.9394C159.056 33.1102 160.137 28.8665 161.274 24.2083C162.412 19.5501 163.445 14.9686 164.373 10.4639C165.259 10.006 166.249 9.65288 167.341 9.40462C168.485 9.15689 169.576 9.03833 170.614 9.04895C172.43 9.06753 173.956 9.47231 175.193 10.2633C176.43 11.0543 177.039 12.4096 177.02 14.3292C177.011 15.1593 176.791 16.3764 176.36 17.9805C175.98 19.5333 175.469 21.3181 174.826 23.3352C174.235 25.3008 173.513 27.3949 172.66 29.6173C171.859 31.8403 171.033 34.0111 170.181 36.1298C169.329 38.2485 168.478 40.2374 167.629 42.0967C166.832 43.9046 166.117 45.402 165.482 46.5889Z" fill="#1B1C21"/>
<path d="M78.1215 38.5053C78.6911 38.6149 79.3905 38.7259 80.2195 38.8381C81.0491 38.8985 81.8271 38.9324 82.5534 38.9398C84.3174 38.9579 85.9284 38.7149 87.3864 38.211C88.8963 37.7076 90.1756 36.9164 91.2244 35.8375C92.3251 34.7591 93.1695 33.3668 93.7578 31.6605C94.3984 29.9029 94.7312 27.8049 94.7561 25.3664C94.8039 20.697 93.7502 17.1839 91.5951 14.8269C89.4405 12.418 86.5473 11.195 82.9155 11.1578C82.1892 11.1504 81.4366 11.1686 80.6579 11.2125C79.931 11.257 79.1779 11.3271 78.3986 11.4229L78.1215 38.5053ZM82.3633 49.9121C81.4813 49.9031 80.4699 49.8668 79.329 49.8032C78.1881 49.7397 76.9959 49.6237 75.7523 49.4553C74.5606 49.2874 73.3435 49.0674 72.101 48.7953C70.9098 48.5755 69.7976 48.2528 68.7642 47.8272C65.9218 46.7084 64.5144 44.8001 64.542 42.1023L64.9139 5.75891C64.9251 4.66938 65.2189 3.84219 65.7955 3.27733C66.4244 2.66112 67.2596 2.17673 68.3009 1.82417C70.5393 1.12065 72.9047 0.677873 75.3972 0.495828C77.8902 0.261902 80.1224 0.155026 82.0939 0.175201C86.1407 0.216612 89.7934 0.746921 93.0519 1.76613C96.3622 2.78586 99.1741 4.34532 101.488 6.44449C103.853 8.49231 105.669 11.0793 106.934 14.2055C108.199 17.3317 108.81 21.022 108.767 25.2763C108.724 29.4269 108.064 33.0522 106.787 36.1524C105.511 39.2007 103.694 41.7765 101.338 43.8798C99.034 45.9317 96.2683 47.46 93.041 48.4647C89.8137 49.4695 86.2545 49.9519 82.3633 49.9121Z" fill="#1B1C21"/>
<path d="M137.872 46.8443C135.107 48.157 132.351 49.0058 129.604 49.3906C126.882 49.7063 124.264 49.5135 121.748 48.8122C119.28 48.0887 116.974 46.7999 114.83 44.9459C112.733 43.0695 110.939 40.5612 109.449 37.4207C107.98 34.3272 107.215 31.4453 107.154 28.7751C107.117 26.0358 107.585 23.5736 108.558 21.3887C109.509 19.1569 110.883 17.2123 112.681 15.5549C114.456 13.8505 116.445 12.4755 118.648 11.4297C121.133 10.2505 123.56 9.55744 125.932 9.35063C128.35 9.12157 130.598 9.31837 132.674 9.94103C134.796 10.5414 136.69 11.5665 138.355 13.0162C140.066 14.4437 141.434 16.2355 142.457 18.3916C143.214 19.9853 143.347 21.4153 142.857 22.6818C142.367 23.9482 141.381 25.0769 139.898 26.0677L123.767 36.9128C125.017 38.2148 126.628 38.886 128.6 38.9263C130.549 38.9197 132.555 38.4269 134.618 37.4479C136.539 36.5357 138.233 35.4447 139.698 34.175C141.187 32.8361 142.315 31.5827 143.082 30.4148C144.054 30.5275 144.998 30.8833 145.915 31.4822C146.831 32.0812 147.511 32.8494 147.956 33.7868C148.957 35.896 148.718 37.9335 147.239 39.8992C146.118 41.408 144.686 42.748 142.945 43.9193C141.203 45.0905 139.513 46.0655 137.872 46.8443ZM122.787 20.1479C121.662 20.6819 120.767 21.3366 120.101 22.1121C119.482 22.8653 119.06 23.669 118.833 24.5231C118.585 25.3303 118.498 26.1756 118.573 27.0591C118.672 27.8734 118.876 28.6666 119.185 29.4388L130.273 21.7631C129.688 20.8924 128.727 20.1997 127.392 19.685C126.056 19.1703 124.521 19.3246 122.787 20.1479Z" fill="#1B1C21"/>
<path fill-rule="evenodd" clip-rule="evenodd" d="M129.662 49.8873C126.879 50.2101 124.195 50.0134 121.614 49.2939L121.608 49.2921C119.064 48.5465 116.695 47.2201 114.503 45.324L114.497 45.3185C112.34 43.3887 110.51 40.8219 108.997 37.6352C107.507 34.4954 106.717 31.544 106.654 28.7866L106.654 28.7818C106.616 25.9822 107.094 23.4481 108.1 21.189C109.078 18.8947 110.492 16.8941 112.338 15.1907C114.151 13.4511 116.184 12.0463 118.434 10.978C120.963 9.77746 123.448 9.06559 125.887 8.85268C128.359 8.61869 130.67 8.81874 132.814 9.461C135.004 10.0812 136.961 11.1403 138.679 12.6357C140.448 14.1122 141.857 15.9622 142.909 18.1772C143.706 19.8559 143.876 21.4324 143.323 22.8622C142.786 24.2503 141.718 25.4527 140.177 26.4829C140.177 26.4831 140.177 26.4827 140.177 26.4829L124.564 36.9796C125.643 37.9064 126.98 38.392 128.604 38.4263C130.467 38.419 132.398 37.948 134.403 36.9962C136.287 36.1022 137.94 35.0362 139.367 33.8001C140.835 32.4799 141.929 31.2597 142.664 30.1404L142.833 29.8826L143.139 29.9181C144.198 30.0408 145.215 30.4274 146.188 31.0638C147.177 31.7102 147.921 32.5472 148.408 33.5724C148.943 34.6999 149.156 35.8307 149.025 36.9551C148.893 38.0774 148.421 39.1596 147.64 40.1988C146.481 41.7576 145.006 43.1353 143.224 44.3342C141.465 45.5172 139.753 46.5051 138.086 47.296C135.28 48.6282 132.475 49.4932 129.674 49.8858L129.662 49.8873ZM139.698 34.175C138.233 35.4447 136.539 36.5357 134.618 37.4479C132.555 38.4269 130.549 38.9197 128.6 38.9263C126.816 38.8898 125.328 38.3371 124.135 37.2682C124.009 37.1555 123.886 37.037 123.767 36.9128L139.898 26.0677C141.381 25.0769 142.367 23.9482 142.857 22.6818C143.347 21.4153 143.214 19.9853 142.457 18.3916C141.434 16.2355 140.066 14.4437 138.355 13.0162C136.69 11.5665 134.796 10.5414 132.674 9.94102C130.598 9.31837 128.35 9.12157 125.932 9.35063C123.56 9.55744 121.133 10.2505 118.648 11.4297C116.445 12.4755 114.456 13.8505 112.681 15.5549C110.883 17.2123 109.509 19.1569 108.558 21.3887C107.585 23.5736 107.117 26.0358 107.154 28.7751C107.215 31.4453 107.98 34.3272 109.449 37.4207C110.939 40.5611 112.733 43.0695 114.83 44.9459C116.974 46.7999 119.28 48.0887 121.748 48.8122C124.264 49.5135 126.882 49.7063 129.604 49.3906C132.351 49.0058 135.107 48.157 137.872 46.8443C139.513 46.0655 141.203 45.0905 142.945 43.9193C144.686 42.748 146.118 41.408 147.239 39.8992C148.718 37.9335 148.957 35.896 147.956 33.7868C147.511 32.8494 146.831 32.0812 145.915 31.4822C144.998 30.8833 144.054 30.5275 143.082 30.4148C142.315 31.5827 141.187 32.8361 139.698 34.175ZM119.314 24.6607L119.311 24.6702C119.083 25.4104 119.002 26.1882 119.07 27.0077C119.139 27.5681 119.26 28.1181 119.435 28.6581L129.556 21.6519C129.031 21.0616 128.261 20.556 127.212 20.1516C126.043 19.7013 124.656 19.8142 123.001 20.5996C121.928 21.109 121.095 21.7233 120.484 22.4337C119.908 23.136 119.522 23.8748 119.317 24.6511L119.314 24.6607ZM129.969 21.3655C130.056 21.4656 130.137 21.5684 130.212 21.674C130.233 21.7034 130.253 21.7332 130.273 21.7631L119.185 29.4388C119.121 29.2784 119.061 29.117 119.006 28.9547C118.796 28.3361 118.651 27.7042 118.573 27.0591C118.498 26.1756 118.585 25.3303 118.833 24.5231C119.06 23.669 119.482 22.8653 120.101 22.1121C120.767 21.3366 121.662 20.6819 122.787 20.1479C124.521 19.3246 126.056 19.1703 127.392 19.685C128.517 20.1188 129.376 20.6789 129.969 21.3655Z" fill="#DDDDDD"/>
<path d="M13.784 2.31523C14.6713 1.80543 15.9993 1.32609 17.7681 0.877203C19.5887 0.428846 21.407 0.213957 23.2229 0.232539C25.817 0.259084 28.0958 0.671562 30.0594 1.46997C32.0753 2.21702 33.3604 3.39764 33.9147 5.01182C34.8209 7.71924 35.8005 10.8685 36.8534 14.4595C37.9063 18.0505 38.9579 21.7712 40.0081 25.6216C41.0589 29.4202 42.084 33.1925 43.0834 36.9386C44.0833 40.6329 44.9578 43.9107 45.7068 46.7722C45.0768 47.4922 44.1371 48.0533 42.8877 48.4556C41.6377 48.9098 40.1567 49.1282 38.4446 49.1106C37.1994 49.0979 36.1369 48.9833 35.257 48.7667C34.4291 48.5507 33.7318 48.2322 33.1654 47.8113C32.6508 47.391 32.2154 46.8417 31.8591 46.1635C31.5547 45.4858 31.2773 44.7047 31.0269 43.82L29.6811 38.4359L15.5951 38.2918C15.1641 39.844 14.7326 41.4481 14.3006 43.1041C13.8685 44.76 13.437 46.3641 13.006 47.9164C12.277 48.1683 11.4967 48.3679 10.665 48.515C9.8846 48.7146 8.92372 48.8086 7.78232 48.7969C5.13633 48.7698 3.16933 48.3086 1.8813 47.4134C0.645689 46.4667 0.036112 45.1893 0.0525702 43.5809C0.060003 42.8546 0.1712 42.1293 0.386161 41.4051C0.601121 40.6808 0.843351 39.8272 1.11285 38.8441C1.49036 37.447 2.00102 35.714 2.64484 33.645C3.34055 31.5767 4.08972 29.3532 4.89238 26.9746C5.69556 24.5441 6.55116 22.0622 7.45916 19.529C8.36717 16.9958 9.22171 14.6178 10.0228 12.3948C10.8244 10.1199 11.5455 8.10372 12.1861 6.3461C12.8786 4.58901 13.4112 3.24539 13.784 2.31523ZM23.02 12.45C22.2714 14.6216 21.4163 17.0515 20.4548 19.7398C19.5457 22.3768 18.714 25.0664 17.9595 27.8088L27.6095 27.9075C26.9119 25.0984 26.1874 22.3669 25.4363 19.713C24.7376 17.0077 24.0878 14.5883 23.487 12.4547L23.02 12.45Z" fill="#1B1C21"/>
<path d="M52.3536 18.8396C51.2222 19.3765 50.2251 20.0795 49.3622 20.9485C48.5446 21.7961 47.9291 22.7774 47.5157 23.8925C47.1253 24.9393 46.9597 26.1091 47.0188 27.402C47.0779 28.6948 47.4523 30.0678 48.142 31.5209C49.5213 34.427 51.3478 36.2307 53.6214 36.932C55.9402 37.6119 58.2536 37.4041 60.5616 36.3086C61.9193 35.6642 63.0181 34.9417 63.8579 34.1411C64.6978 33.3404 65.4135 32.57 66.0048 31.8299C67.2214 32.0566 68.245 32.4609 69.0758 33.043C69.8843 33.5781 70.5444 34.3848 71.0561 35.4629C71.9682 37.3847 71.7976 39.3034 70.5444 41.2192C69.2688 43.0881 67.0698 44.7636 63.9472 46.2456C61.0961 47.5988 58.3163 48.4013 55.6079 48.653C52.8772 48.8578 50.3075 48.5842 47.8989 47.8321C45.5133 47.0117 43.3452 45.7147 41.3945 43.9412C39.4438 42.1678 37.8344 39.9452 36.5663 37.2734C35.098 34.1798 34.2939 31.259 34.1542 28.5112C34.0375 25.695 34.4604 23.1395 35.4229 20.8449C36.3854 18.5502 37.7749 16.5124 39.5912 14.7314C41.4527 12.929 43.6054 11.4478 46.0491 10.2879C49.3075 8.74146 52.1084 8.15872 54.4518 8.53974C56.7951 8.92076 58.4229 10.0722 59.335 11.994C59.7577 12.8846 59.9545 13.8249 59.9254 14.8151C59.8741 15.7584 59.7103 16.6401 59.4342 17.4604C58.4869 17.4505 57.3923 17.5393 56.1505 17.7267C54.8864 17.8672 53.6208 18.2382 52.3536 18.8396Z" fill="#1B1C21"/>
<path fill-rule="evenodd" clip-rule="evenodd" d="M47.9845 24.0663L47.9842 24.0672C47.6208 25.0417 47.4618 26.1429 47.5183 27.3791C47.5738 28.5916 47.9259 29.8993 48.5937 31.3065C49.9343 34.131 51.6694 35.8055 53.7654 36.4532C55.9581 37.0952 58.1443 36.9025 60.3473 35.8569C61.6703 35.229 62.721 34.5341 63.513 33.7792C64.34 32.9908 65.0396 32.2369 65.6142 31.5178L65.8015 31.2834L66.0964 31.3384C67.3655 31.5748 68.4577 32.0007 69.3573 32.6297C70.2549 33.2255 70.9672 34.1094 71.5078 35.2485C72.5012 37.3416 72.3027 39.4448 70.9628 41.4929L70.9574 41.5011L70.9574 41.5011C69.6122 43.472 67.3254 45.1957 64.1616 46.6973C61.2659 48.0717 58.4294 48.8929 55.6541 49.1508L55.6453 49.1517L55.6453 49.1516C52.857 49.3607 50.2237 49.0818 47.7499 48.3094L47.7431 48.3072L47.7363 48.3049C45.2835 47.4614 43.0569 46.1283 41.0581 44.3112C39.0537 42.4889 37.4072 40.2113 36.1146 37.4878C34.6248 34.3489 33.7986 31.3638 33.6549 28.5366L33.6546 28.5319L33.6546 28.5319C33.5353 25.6521 33.9674 23.0223 34.9618 20.6515C35.9507 18.294 37.3784 16.2009 39.2411 14.3744L39.2434 14.3722L39.2434 14.3722C41.1457 12.5302 43.344 11.0184 45.8348 9.83624C49.1402 8.2674 52.0488 7.64247 54.532 8.04622C57.0156 8.45004 58.7951 9.69034 59.7867 11.7796C60.2435 12.742 60.4566 13.7609 60.4252 14.8298L60.4248 14.8423L60.4247 14.8423C60.3711 15.8265 60.1999 16.7532 59.9081 17.6199L59.7923 17.9641L59.4291 17.9603C58.5154 17.9508 57.4485 18.0365 56.2251 18.2211L56.2155 18.2225L56.2058 18.2236C55.0022 18.3574 53.7901 18.7112 52.568 19.2913C51.4888 19.8035 50.5403 20.4724 49.7196 21.2983C48.9516 22.0951 48.3738 23.0163 47.9845 24.0663ZM69.0758 33.043C68.2451 32.4609 67.2214 32.0566 66.0048 31.8299C65.4135 32.57 64.6979 33.3404 63.858 34.1411C63.0181 34.9417 61.9193 35.6642 60.5617 36.3086C58.2536 37.404 55.9402 37.6119 53.6214 36.932C51.3478 36.2307 49.5213 34.427 48.142 31.5209C47.4524 30.0678 47.078 28.6948 47.0188 27.402C46.9597 26.1091 47.1253 24.9393 47.5157 23.8925C47.9291 22.7774 48.5446 21.7961 49.3622 20.9485C50.2251 20.0795 51.2223 19.3765 52.3536 18.8396C53.6208 18.2382 54.8864 17.8672 56.1505 17.7267C57.3924 17.5393 58.4869 17.4505 59.4343 17.4604C59.7104 16.6401 59.8741 15.7584 59.9254 14.8151C59.9545 13.8249 59.7577 12.8846 59.335 11.994C58.4229 10.0722 56.7952 8.92076 54.4518 8.53974C52.1084 8.15872 49.3075 8.74145 46.0492 10.2879C43.6054 11.4478 41.4527 12.929 39.5912 14.7314C37.7749 16.5124 36.3855 18.5502 35.4229 20.8449C34.4604 23.1395 34.0375 25.695 34.1542 28.5112C34.294 31.259 35.098 34.1798 36.5663 37.2734C37.8344 39.9452 39.4438 42.1678 41.3945 43.9412C43.3452 45.7147 45.5133 47.0117 47.8989 47.8321C50.3075 48.5842 52.8772 48.8578 55.6079 48.653C58.3163 48.4013 61.0961 47.5988 63.9472 46.2456C67.0698 44.7636 69.2689 43.0881 70.5444 41.2192C71.7976 39.3034 71.9682 37.3847 71.0561 35.4629C70.5444 34.3848 69.8843 33.5781 69.0758 33.043Z" fill="#DDDDDD"/>
</svg>
